<?xml version="1.0" encoding="UTF-8" standalone="no"?>
<!-- Created with Inkscape (http://www.inkscape.org/) -->

<svg
   xmlns:dc="http://purl.org/dc/elements/1.1/"
   xmlns:cc="http://creativecommons.org/ns#"
   xmlns:rdf="http://www.w3.org/1999/02/22-rdf-syntax-ns#"
   xmlns:svg="http://www.w3.org/2000/svg"
   xmlns="http://www.w3.org/2000/svg"
   xmlns:sodipodi="http://sodipodi.sourceforge.net/DTD/sodipodi-0.dtd"
   xmlns:inkscape="http://www.inkscape.org/namespaces/inkscape"
   width="69.621788mm"
   height="37.069843mm"
   viewBox="0 0 246.69137 131.34984"
   id="svg5364"
   version="1.1"
   inkscape:version="0.91 r13725"
   sodipodi:docname="border.svg">
  <defs
     id="defs5366" />
  <sodipodi:namedview
     id="base"
     pagecolor="#ffffff"
     bordercolor="#666666"
     borderopacity="1.0"
     inkscape:pageopacity="0.0"
     inkscape:pageshadow="2"
     inkscape:zoom="2.8"
     inkscape:cx="132.63492"
     inkscape:cy="93.634247"
     inkscape:document-units="px"
     inkscape:current-layer="layer1"
     showgrid="false"
     fit-margin-top="0"
     fit-margin-left="0"
     fit-margin-right="0"
     fit-margin-bottom="0"
     inkscape:window-width="1920"
     inkscape:window-height="1080"
     inkscape:window-x="0"
     inkscape:window-y="0"
     inkscape:window-maximized="1" />
  <metadata
     id="metadata5369">
    <rdf:RDF>
      <cc:Work
         rdf:about="">
        <dc:format>image/svg+xml</dc:format>
        <dc:type
           rdf:resource="http://purl.org/dc/dcmitype/StillImage" />
        <dc:title></dc:title>
      </cc:Work>
    </rdf:RDF>
  </metadata>
  <g
     inkscape:label="Layer 1"
     inkscape:groupmode="layer"
     id="layer1"
     transform="translate(0,-921.01239)">
    <path
       style="fill:none;stroke:#3c3c3c;stroke-width:3;stroke-linecap:round;stroke-linejoin:round;stroke-miterlimit:10;stroke-dasharray:none;stroke-opacity:1"
       d="m 2.1495596,942.60159 c -0.2659419,12.48901 2.000736,24.94017 0.8519726,37.43645 -0.2016245,8.13136 -0.3977558,16.27182 0.1129179,24.40376 0.058436,12.6911 -0.6671906,24.3964 0.1145194,37.0762 3.2538451,5.7445 10.0856435,7.5674 16.0364825,8.2186 4.532454,-0.076 9.07571,-0.7269 13.621027,-0.042 6.80078,0.7623 13.939159,1.4393 20.782977,0.7081 8.330727,-0.4558 13.765355,-0.1043 22.085025,-0.01 1.155681,-0.1256 5.572421,-0.4065 7.182582,-0.4457"
       id="path12"
       inkscape:connector-curvature="0"
       sodipodi:nodetypes="ccccccccc" />
    <path
       style="fill:none;stroke:#3c3c3c;stroke-width:3;stroke-linecap:round;stroke-linejoin:round;stroke-miterlimit:10;stroke-dasharray:none;stroke-opacity:1"
       d="m 82.14802,1049.9622 c 14.28815,-0.627 28.58782,-0.2202 42.87744,-0.3994 14.06729,-0.7752 28.2336,0.9773 42.25207,-0.5146 13.33395,-1.0531 26.76563,0.1694 40.13417,-0.5311 7.18548,-0.7075 14.4118,0.1503 21.61423,-0.4527 6.81513,-0.42 11.81876,-0.1448 13.13293,-6.0369 0.32602,-4.8023 0.54781,-9.6145 1.2189,-14.3875"
       id="path14"
       inkscape:connector-curvature="0"
       sodipodi:nodetypes="ccccccc" />
    <path
       style="fill:none;stroke:#3c3c3c;stroke-width:3;stroke-linecap:round;stroke-linejoin:round;stroke-miterlimit:10;stroke-dasharray:none;stroke-opacity:1"
       d="m 243.37776,1027.4139 c 0.46355,-7.013 0.6778,-14.0245 1.43602,-21.0197 0.71112,-10.61166 -0.41551,-21.2155 -0.70333,-31.82494 -0.68558,-13.5174 -1.13889,-27.04335 -0.92619,-40.57842 1.61592,-7.34285 -4.43273,-12.83365 -11.59763,-10.97386 -8.16121,0.5411 -16.34557,1.04024 -24.49694,1.46463 -5.94139,0.9113 -11.98225,-0.10388 -17.96283,0.35638 -6.55032,-0.44688 -13.14715,-1.64498 -19.65036,-0.0885 -10.66111,0.58917 -21.3243,-1.01984 -32.00365,-0.40699 -8.55747,0.0726 -17.10126,0.90545 -25.63913,-0.0257 -1.6707,-0.0389 -3.34252,-0.0251 -5.01253,0.0354"
       id="path16"
       inkscape:connector-curvature="0" />
    <path
       style="fill:none;stroke:#3c3c3c;stroke-width:3;stroke-linecap:round;stroke-linejoin:round;stroke-miterlimit:10;stroke-dasharray:none;stroke-opacity:1"
       d="m 106.6314,924.35221 c -8.3097,-0.0571 -16.646832,-0.0391 -24.886927,-1.21898 -11.57422,-0.85318 -23.075537,1.35494 -34.646843,1.32337 -8.121076,0.19582 -16.248339,-0.0129 -24.359092,-0.41488 -6.014033,-0.31489 -12.015459,-1.23669 -18.0385284,-1.14053 -3.8036023,1.82512 -2.9473348,6.86039 -3.0023673,10.36353 0.08752,2.95258 0.2239444,5.90354 0.3854786,8.85293"
       id="path18"
       inkscape:connector-curvature="0" />
  </g>
</svg>
