<?xml version="1.0" encoding="UTF-8" standalone="no"?>
<!-- Created with Inkscape (http://www.inkscape.org/) -->

<svg
   xmlns:dc="http://purl.org/dc/elements/1.1/"
   xmlns:cc="http://creativecommons.org/ns#"
   xmlns:rdf="http://www.w3.org/1999/02/22-rdf-syntax-ns#"
   xmlns:svg="http://www.w3.org/2000/svg"
   xmlns="http://www.w3.org/2000/svg"
   xmlns:sodipodi="http://sodipodi.sourceforge.net/DTD/sodipodi-0.dtd"
   xmlns:inkscape="http://www.inkscape.org/namespaces/inkscape"
   width="25.60021mm"
   height="34.113308mm"
   viewBox="0 0 90.709406 120.87393"
   id="svg4163"
   version="1.1"
   inkscape:version="0.91 r13725"
   sodipodi:docname="figure.svg">
  <defs
     id="defs4165" />
  <sodipodi:namedview
     id="base"
     pagecolor="#ffffff"
     bordercolor="#666666"
     borderopacity="1.0"
     inkscape:pageopacity="0.0"
     inkscape:pageshadow="2"
     inkscape:zoom="2.8"
     inkscape:cx="24.137187"
     inkscape:cy="55.249022"
     inkscape:document-units="px"
     inkscape:current-layer="layer1"
     showgrid="false"
     inkscape:showpageshadow="false"
     borderlayer="true"
     fit-margin-top="0"
     fit-margin-left="0"
     fit-margin-right="0"
     fit-margin-bottom="0"
     inkscape:window-width="1920"
     inkscape:window-height="1080"
     inkscape:window-x="0"
     inkscape:window-y="0"
     inkscape:window-maximized="1" />
  <metadata
     id="metadata4168">
    <rdf:RDF>
      <cc:Work
         rdf:about="">
        <dc:format>image/svg+xml</dc:format>
        <dc:type
           rdf:resource="http://purl.org/dc/dcmitype/StillImage" />
        <dc:title></dc:title>
      </cc:Work>
    </rdf:RDF>
  </metadata>
  <g
     inkscape:label="Layer 1"
     inkscape:groupmode="layer"
     id="layer1"
     transform="translate(-0.14589728,-931.34268)">
    <path
       d="m 60.859396,932.84893 c -1.77259,0.5325 -3.58196,0.83539 -5.42814,0.90879 -1.84619,0.0734 -3.64357,0.28209 -5.39221,0.62614 -1.74861,0.34401 -2.98881,0.70385 -3.72056,1.07956 -0.73175,0.37568 -1.9716,1.27343 -3.71957,2.69325 -1.74793,1.41983 -2.98956,2.59506 -3.72485,3.5257 -0.73528,0.93059 -1.45198,2.28363 -2.15011,4.0591 -0.69812,1.77544 -1.13585,3.31715 -1.31319,4.62513 -0.17732,1.30798 -0.18252,2.67945 -0.0156,4.11431 0.16694,1.43486 0.47098,2.71381 0.91213,3.83682 0.44115,1.12293 1.48432,2.6842 3.1295,4.6838 1.64517,1.99955 2.95721,3.28282 3.93611,3.84983 0.97893,0.56697 1.94615,1.24736 2.90168,2.04116 0.95552,0.7938 1.83017,1.43334 2.62392,1.91853 0.79376,0.48512 1.87755,1.00056 3.25138,1.54633 1.37382,0.54562 3.0252,0.98393 4.9541,1.31485 1.92891,0.33088 3.72931,0.52784 5.40117,0.59085 1.67185,0.063 3.09594,0.003 4.27221,-0.18313 1.1763,-0.18513 3.11032,-0.7063 5.802,-1.5635 2.6917,-0.85728 4.81928,-1.75968 6.38274,-2.70714 1.56349,-0.94753 2.84523,-1.57444 3.84521,-1.88075 1,-0.30633 1.63589,-0.56253 1.90768,-0.76851 0.27179,-0.206 0.57321,-0.57904 0.90429,-1.11905 0.33106,-0.54 0.98845,-2.04788 1.97215,-4.52365 0.98371,-2.47582 1.53966,-4.28597 1.66788,-5.43045 0.12823,-1.14453 0.128,-2.22753 -6.7e-4,-3.24894 -0.12866,-1.0215 -0.38131,-1.94821 -0.75795,-2.78008 -0.37664,-0.83195 -1.01139,-1.95591 -1.90425,-3.37188 -0.89286,-1.41607 -1.83401,-2.57684 -2.82346,-3.48229 -0.98945,-0.90546 -2.13565,-1.80439 -3.43863,-2.69684 -1.30295,-0.89245 -3.30549,-1.97727 -6.00759,-3.25444 -2.70207,-1.27723 -5.38583,-2.29323 -8.0513,-3.04805 -2.66543,-0.75482 -4.52193,-1.14476 -5.56948,-1.16982 -1.04755,-0.0251 -2.07193,0.17872 -3.0731,0.61157"
       style="fill:none;stroke:#3c3c3c;stroke-width:3;stroke-linecap:round;stroke-linejoin:round;stroke-miterlimit:10;stroke-dasharray:none;stroke-opacity:1"
       id="path370"
       inkscape:connector-curvature="0" />
    <path
       d="m 45.011616,953.57511 0.47448,5.69404"
       style="fill:none;stroke:#3c3c3c;stroke-width:3;stroke-linecap:round;stroke-linejoin:round;stroke-miterlimit:10;stroke-dasharray:none;stroke-opacity:1"
       id="path372"
       inkscape:connector-curvature="0" />
    <path
       d="m 59.056346,957.56093 0.0949,5.23849"
       style="fill:none;stroke:#3c3c3c;stroke-width:3;stroke-linecap:round;stroke-linejoin:round;stroke-miterlimit:10;stroke-dasharray:none;stroke-opacity:1"
       id="path374"
       inkscape:connector-curvature="0" />
    <path
       d="m 39.412696,967.58245 c -0.37885,0.17573 -0.83258,0.7658 -1.36118,1.77017 -0.52861,1.00436 -1.47403,2.2472 -2.83628,3.72848 -1.36225,1.48128 -3.01172,3.05107 -4.94835,4.70932 -1.936648,1.65818 -4.171588,3.35285 -6.704838,5.08404 -2.53324,1.73111 -4.54951,3.03444 -6.04884,3.90995 -1.49932,0.87544 -2.84705,1.57886 -4.04319,2.11032 -1.19612,0.53139 -2.86157,1.1245 -4.9963498,1.77934 -2.13477,0.65483 -3.75572,1.38653 -4.86285,2.19509 -1.10713,0.8086 -1.71796,1.35441 -1.83246,1.63739 -0.11451,0.28292 -0.14519,0.77277 -0.092,1.46956 0.0532,0.69669 0.19893,1.31927 0.43732,1.86776 0.23839,0.54848 0.41155,0.88043 0.51949,0.99583 0.10796,0.11537 0.37875,0.21503 0.81239,0.29891 0.43363,0.0839 1.75732,-0.0682 3.97106,-0.45628 2.21374,-0.3881 4.4336498,-0.88886 6.6596998,-1.50222 2.22606,-0.6134 3.62061,-1.02691 4.18365,-1.24058 0.56304,-0.21373 1.49361,-0.75875 2.79172,-1.6351 1.2981,-0.87635 2.50828,-1.54227 3.63052,-1.99778 1.12223,-0.45552 2.27516,-1.00843 3.45876,-1.65872 1.183598,-0.65025 2.925548,-1.73457 5.225848,-3.25297 2.30031,-1.51841 3.82592,-2.7282 4.57684,-3.62943 0.75092,-0.90122 0.96405,-1.13285 0.6394,-0.69488 -0.32465,0.43797 -1.0953,0.9692 -2.31193,1.59382"
       style="fill:none;stroke:#3c3c3c;stroke-width:3;stroke-linecap:round;stroke-linejoin:round;stroke-miterlimit:10;stroke-dasharray:none;stroke-opacity:1"
       id="path376"
       inkscape:connector-curvature="0" />
    <path
       d="m 66.648096,989.7891 c 0.52589,11.4539 1.07174,19.8089 1.63759,25.0648 0.56585,5.2561 1.00438,10.4021 1.31562,15.4383 0.31125,5.0362 0.63184,8.8383 0.9618,11.4061 0.32995,2.5678 0.49453,4.437 0.49371,5.6075 -8.1e-4,1.1704 -0.073,1.9318 -0.21656,2.2841 -0.14355,0.3523 -0.42647,0.6299 -0.84876,0.8328 -0.42226,0.203 -1.33455,0.299 -2.73685,0.2879 -1.40229,-0.011 -2.204,-0.083 -2.40516,-0.2156 -0.20114,-0.1328 -0.38158,-0.3799 -0.54129,-0.7415 -0.15971,-0.3615 -0.4392,-1.3089 -0.83848,-2.8422 -0.39927,-1.5333 -0.76235,-3.4816 -1.08921,-5.8448 -0.32686,-2.3633 -0.69907,-4.362 -1.11665,-5.9963 -0.41755,-1.6343 -0.65889,-4.0701 -0.724,-7.3076 -0.0651,-3.2374 -0.19845,-5.4215 -0.40005,-6.5522 -0.20159,-1.1308 -0.61705,-1.7893 -1.24637,-1.9757 -0.62933,-0.1862 -2.78813,-0.118 -6.47643,0.205 -3.6883,0.3228 -6.16126,0.3358 -7.41889,0.039 -1.25761,-0.2969 -2.03341,-0.5554 -2.32737,-0.7755 -0.29395,-0.2202 -0.431,-0.4442 -0.41114,-0.6719"
       style="fill:none;stroke:#3c3c3c;stroke-width:3;stroke-linecap:round;stroke-linejoin:round;stroke-miterlimit:10;stroke-dasharray:none;stroke-opacity:1"
       id="path378"
       inkscape:connector-curvature="0" />
    <path
       d="m 70.064386,975.44015 c 0.96726,0.90767 2.31727,2.81982 4.05005,5.73642 1.73277,2.91669 3.70566,7.05414 5.91867,12.41243 2.21299,5.35827 3.72315,9.2695 4.53049,11.7338 0.80731,2.4642 1.33544,4.3725 1.58437,5.7248 0.24894,1.3524 0.38835,2.6825 0.4182,3.9904 0.0299,1.3079 -0.18372,2.1403 -0.64072,2.4971 -0.45701,0.3568 -0.87778,0.5277 -1.26231,0.5126 -0.38452,-0.015 -0.99158,-0.2654 -1.82118,-0.7513 -0.82959,-0.4858 -1.83585,-1.374 -3.01879,-2.6646 -1.18291,-1.2906 -1.94541,-2.4412 -2.28747,-3.452 -0.34205,-1.0108 -0.77646,-1.732 -1.30323,-2.1636 -0.52675,-0.4316 -1.82445,-2.5724 -3.8931,-6.4223 -2.06863,-3.84995 -3.27936,-6.46035 -3.6322,-7.83124 -0.35281,-1.37089 -0.88101,-2.64915 -1.58458,-3.8348"
       style="fill:none;stroke:#3c3c3c;stroke-width:3;stroke-linecap:round;stroke-linejoin:round;stroke-miterlimit:10;stroke-dasharray:none;stroke-opacity:1"
       id="path380"
       inkscape:connector-curvature="0" />
    <path
       d="m 39.128006,983.07016 c -1.44519,5.87234 -2.50387,10.98556 -3.17605,15.33957 -0.67216,4.35397 -1.35544,7.74607 -2.0498,10.17647 -0.69436,2.4303 -1.41881,5.3 -2.17335,8.6091 -0.75452,3.3091 -1.61301,6.3995 -2.57547,9.2711 -0.962468,2.8715 -1.725918,5.6313 -2.290348,8.2791 -0.56445,2.6478 -1.05954,5.6011 -1.48529,8.8598 -0.42574,3.2587 -0.62343,5.1013 -0.59305,5.5277 0.0304,0.4264 0.18254,0.746 0.45646,0.9587 0.27393,0.2127 1.08693,0.2531 2.43901,0.1211 1.352078,-0.1319 2.287028,-0.4018 2.804868,-0.8097 0.51785,-0.4079 0.9415,-0.855 1.27095,-1.3414 0.32943,-0.4865 0.83456,-1.5327 1.51535,-3.1385 0.6808,-1.6058 1.39211,-3.8105 2.13396,-6.6139 0.74184,-2.8035 1.50687,-5.3475 2.29511,-7.6319 0.78823,-2.2846 1.49598,-4.071 2.12324,-5.3592 0.62726,-1.2882 1.5658,-4.0209 2.81559,-8.198"
       style="fill:none;stroke:#3c3c3c;stroke-width:3;stroke-linecap:round;stroke-linejoin:round;stroke-miterlimit:10;stroke-dasharray:none;stroke-opacity:1"
       id="path414"
       inkscape:connector-curvature="0" />
    <path
       d="m 35.521936,1005.6183 c 0.0821,0.383 0.34062,0.6439 0.77543,0.7826 0.43482,0.1386 0.91944,0.3974 1.45387,0.7765 0.53443,0.3791 1.68366,0.8052 3.44768,1.2783 1.76405,0.4731 5.69035,0.7061 11.77894,0.6991 6.0886,-0.01 9.75489,-0.133 10.99888,-0.3778 1.24398,-0.2447 2.2926,-0.7661 3.14585,-1.5643"
       style="fill:none;stroke:#3c3c3c;stroke-width:3;stroke-linecap:round;stroke-linejoin:round;stroke-miterlimit:10;stroke-dasharray:none;stroke-opacity:1"
       id="path416"
       inkscape:connector-curvature="0" />
  </g>
</svg>
