<?xml version="1.0" encoding="UTF-8" standalone="no"?>
<!-- Created with Inkscape (http://www.inkscape.org/) -->

<svg
   xmlns:dc="http://purl.org/dc/elements/1.1/"
   xmlns:cc="http://creativecommons.org/ns#"
   xmlns:rdf="http://www.w3.org/1999/02/22-rdf-syntax-ns#"
   xmlns:svg="http://www.w3.org/2000/svg"
   xmlns="http://www.w3.org/2000/svg"
   xmlns:sodipodi="http://sodipodi.sourceforge.net/DTD/sodipodi-0.dtd"
   xmlns:inkscape="http://www.inkscape.org/namespaces/inkscape"
   width="642.05109"
   height="5.4068151"
   viewBox="0 0 642.05107 5.4068151"
   id="svg6044"
   version="1.1"
   inkscape:version="0.91 r13725"
   sodipodi:docname="hr.svg">
  <defs
     id="defs6046" />
  <sodipodi:namedview
     id="base"
     pagecolor="#ffffff"
     bordercolor="#666666"
     borderopacity="1.0"
     inkscape:pageopacity="0.0"
     inkscape:pageshadow="2"
     inkscape:zoom="1.4"
     inkscape:cx="327.60837"
     inkscape:cy="-25.43287"
     inkscape:document-units="px"
     inkscape:current-layer="layer1"
     showgrid="false"
     fit-margin-top="0"
     fit-margin-left="0"
     fit-margin-right="0"
     fit-margin-bottom="0"
     inkscape:window-width="1920"
     inkscape:window-height="1080"
     inkscape:window-x="0"
     inkscape:window-y="0"
     inkscape:window-maximized="1"
     units="px" />
  <metadata
     id="metadata6049">
    <rdf:RDF>
      <cc:Work
         rdf:about="">
        <dc:format>image/svg+xml</dc:format>
        <dc:type
           rdf:resource="http://purl.org/dc/dcmitype/StillImage" />
        <dc:title />
      </cc:Work>
    </rdf:RDF>
  </metadata>
  <g
     inkscape:label="Layer 1"
     inkscape:groupmode="layer"
     id="layer1"
     transform="translate(-3.4534391e-8,-1046.9554)">
    <path
       inkscape:connector-curvature="0"
       id="path6033"
       style="fill:none;stroke:#3c3c3c;stroke-width:3;stroke-linecap:round;stroke-linejoin:round;stroke-miterlimit:10;stroke-dasharray:none;stroke-opacity:1"
       d="m 1.6677144,1049.7325 c 5.1049374,-0.2298 16.4304496,-0.1081 33.9763996,0.365 17.54595,0.4731 31.345838,0.661 41.399638,0.5635 10.053825,-0.097 15.895737,-0.1068 17.525725,-0.028 1.629986,0.079 9.715583,0.1012 24.256823,0.068 14.5412,-0.034 24.65852,-0.1442 30.35192,-0.3319 5.69349,-0.1878 10.54195,-0.286 14.54538,-0.2949 4.00355,-0.01 9.81015,-0.1846 17.4199,-0.5274 7.60977,-0.3428 12.92342,-0.4862 15.94107,-0.4299 3.01768,0.056 7.35064,0.2821 12.9988,0.6778 5.64828,0.3959 15.35577,0.4631 29.12259,0.2017 13.76686,-0.2614 23.86426,-0.2958 30.29228,-0.1033 6.42805,0.1925 17.02211,0.3082 31.7823,0.347 14.76018,0.039 28.36995,-4e-4 40.82932,-0.1174 12.45943,-0.117 22.04856,-0.3147 28.76761,-0.5927 6.71908,-0.2781 14.7894,-0.3299 24.21095,-0.1558 9.42173,0.1741 26.80245,0.1938 52.14224,0.059 25.33989,-0.1347 43.50105,-0.1743 54.4835,-0.1186 10.98258,0.056 23.80371,-0.052 38.46334,-0.3235 14.65971,-0.2713 25.89123,-0.4016 33.69451,-0.3908 7.80333,0.011 17.77897,0.2387 29.92697,0.6836 12.14804,0.4448 19.34437,0.6107 21.58889,0.4974 2.24461,-0.1133 7.24313,-0.2041 14.99548,-0.2723"
       sodipodi:nodetypes="cccssscsccscsscsscccccc" />
  </g>
</svg>
