<?xml version="1.0" encoding="UTF-8" standalone="no"?>
<!-- Created with Inkscape (http://www.inkscape.org/) -->

<svg
   xmlns:dc="http://purl.org/dc/elements/1.1/"
   xmlns:cc="http://creativecommons.org/ns#"
   xmlns:rdf="http://www.w3.org/1999/02/22-rdf-syntax-ns#"
   xmlns:svg="http://www.w3.org/2000/svg"
   xmlns="http://www.w3.org/2000/svg"
   xmlns:sodipodi="http://sodipodi.sourceforge.net/DTD/sodipodi-0.dtd"
   xmlns:inkscape="http://www.inkscape.org/namespaces/inkscape"
   width="126.4109mm"
   height="123.64868mm"
   viewBox="0 0 447.91262 438.12525"
   id="svg5487"
   version="1.1"
   inkscape:version="0.91 r13725"
   sodipodi:docname="star.svg">
  <defs
     id="defs5489" />
  <sodipodi:namedview
     id="base"
     pagecolor="#ffffff"
     bordercolor="#666666"
     borderopacity="1.0"
     inkscape:pageopacity="0.0"
     inkscape:pageshadow="2"
     inkscape:zoom="0.35"
     inkscape:cx="-197.85714"
     inkscape:cy="519.99998"
     inkscape:document-units="px"
     inkscape:current-layer="layer1"
     showgrid="false"
     fit-margin-top="0"
     fit-margin-left="0"
     fit-margin-right="0"
     fit-margin-bottom="0"
     inkscape:window-width="1920"
     inkscape:window-height="1080"
     inkscape:window-x="0"
     inkscape:window-y="0"
     inkscape:window-maximized="1" />
  <metadata
     id="metadata5492">
    <rdf:RDF>
      <cc:Work
         rdf:about="">
        <dc:format>image/svg+xml</dc:format>
        <dc:type
           rdf:resource="http://purl.org/dc/dcmitype/StillImage" />
        <dc:title></dc:title>
      </cc:Work>
    </rdf:RDF>
  </metadata>
  <g
     inkscape:label="Layer 1"
     inkscape:groupmode="layer"
     id="layer1"
     transform="translate(-2.4275264e-7,-614.23692)">
    <path
       d="m 160.10438,779.94317 c 9.55795,-33.44778 18.54325,-60.15682 26.95559,-80.12597 8.41268,-19.968 16.04002,-34.91068 22.88214,-44.82572 6.84212,-9.9162 14.25917,-16.45039 22.25161,-19.60372 7.99186,-3.15217 13.25985,-2.99588 15.80329,0.47116 2.54345,3.46476 5.32005,9.62661 8.32857,18.48442 3.00943,8.85782 5.02207,24.66466 6.03862,47.41711 1.01702,22.75474 3.74731,41.17021 8.19055,55.24525 4.44336,14.07506 7.94762,21.61937 10.51209,22.63639 2.56539,1.01127 6.08068,0.98828 10.54691,-0.11492 4.46646,-1.06873 13.56564,-1.29282 27.29723,-0.65503 13.73252,0.64354 25.04982,2.98899 33.95273,7.04786 8.9028,4.05773 21.94443,7.65693 39.12374,10.79762 17.18022,3.14068 27.40732,5.52981 30.68244,7.16623 3.27512,1.63757 5.20742,4.13702 5.79672,7.50065 0.59068,3.36247 0.36888,5.73666 -0.66307,7.1191 -1.0331,1.38361 -8.58495,4.40708 -22.65852,9.07157 -14.07346,4.66448 -28.09521,11.67903 -42.06525,21.04477 -13.96993,9.36689 -24.85044,17.96155 -32.64153,25.78511 -7.79111,7.82356 -16.48626,15.315 -26.08476,22.47319 -9.59874,7.15818 -9.2988,16.8411 0.89866,29.04646 10.19733,12.2042 18.45718,25.63456 24.77792,40.28879 6.32097,14.65308 9.83626,27.35142 10.54553,38.09501 0.71019,10.7448 -0.16892,18.6626 -2.63596,23.7523 -2.46621,5.0907 -7.66882,6.5536 -15.6069,4.3897 -7.93762,-2.1637 -15.62345,-6.965 -23.05692,-14.4025 -7.43395,-7.4386 -17.34859,-13.7291 -29.74404,-18.87283 -12.39523,-5.14369 -23.07062,-13.75558 -32.02432,-25.83796 -8.95371,-12.0824 -16.13851,-20.51041 -21.55509,-25.28292 -5.41555,-4.77367 -10.15171,-5.96306 -14.20804,-3.56933 -4.05619,2.39372 -10.27766,7.827 -18.66367,16.29755 -8.38602,8.47169 -16.10887,17.24906 -23.16876,26.3321 -7.06,9.08306 -12.68469,14.08769 -16.87511,15.01509 -4.19042,0.9308 -10.1601,4.2864 -17.91007,10.0817 -7.74949,5.7941 -13.14896,8.8671 -16.19918,9.2187 -3.04931,0.3562 -5.74306,-0.2873 -8.08092,-1.9065 -2.337753,-1.6226 -5.069303,-5.1506 -8.194463,-10.585 -3.12423,-5.4356 -4.34901,-10.0783 -3.67388,-13.92803 0.67572,-3.85202 4.85361,-13.60159 12.536003,-29.24986 7.68205,-15.64826 15.62311,-29.2441 23.82239,-40.78983 8.19987,-11.54457 12.37707,-19.2739 12.53221,-23.18913 0.15513,-3.91293 -1.76569,-8.23841 -5.76329,-12.97299 -3.99656,-4.73574 -12.30948,-9.29909 -24.93938,-13.69237 C 94.536777,870.72311 76.538113,861.40677 53.170334,847.16739 29.802436,832.928 18.417097,823.82657 19.014547,819.86193 c 0.597569,-3.96349 2.426459,-8.4648 5.487142,-13.50392 3.060682,-5.03796 8.634471,-9.51743 16.722514,-13.43725 8.087928,-3.91983 47.351524,-6.07452 117.789967,-6.46294"
       style="fill:none;stroke:#3c3c3c;stroke-width:37.79207611;stroke-linecap:round;stroke-linejoin:round;stroke-miterlimit:10;stroke-dasharray:none;stroke-opacity:1"
       id="path310"
       inkscape:connector-curvature="0"
       inkscape:export-filename="icon.png"
       inkscape:export-xdpi="90"
       inkscape:export-ydpi="90" />
  </g>
</svg>
